<?xml version="1.0" encoding="UTF-8"?>
<!DOCTYPE svg PUBLIC "-//W3C//DTD SVG 1.1//EN" "http://www.w3.org/Graphics/SVG/1.1/DTD/svg11.dtd">
<svg xmlns="http://www.w3.org/2000/svg" version="1.1" width="512px" height="512px" style="shape-rendering:geometricPrecision; text-rendering:geometricPrecision; image-rendering:optimizeQuality; fill-rule:evenodd; clip-rule:evenodd" xmlns:xlink="http://www.w3.org/1999/xlink">
<g><path style="opacity:1" fill="#284571" d="M -0.5,-0.5 C 170.167,-0.5 340.833,-0.5 511.5,-0.5C 511.5,170.167 511.5,340.833 511.5,511.5C 340.833,511.5 170.167,511.5 -0.5,511.5C -0.5,340.833 -0.5,170.167 -0.5,-0.5 Z"/></g>
<g><path style="opacity:1" fill="#fdfdfd" d="M 58.5,140.5 C 75.2391,153.529 94.2391,161.029 115.5,163C 134.5,163.333 153.5,163.667 172.5,164C 209.969,169.642 237.636,189.142 255.5,222.5C 272.389,189.796 299.056,170.296 335.5,164C 354.167,163.667 372.833,163.333 391.5,163C 414.006,161.112 434.339,153.612 452.5,140.5C 453.499,183.997 453.832,227.663 453.5,271.5C 448.643,317.765 424.643,349.265 381.5,366C 337.585,377.9 300.418,367.067 270,333.5C 266.188,347.604 261.188,361.271 255,374.5C 249.8,361.233 244.8,347.9 240,334.5C 203.265,372.293 160.765,380.459 112.5,359C 79.3171,339.289 60.9837,310.122 57.5,271.5C 57.168,227.663 57.5013,183.997 58.5,140.5 Z"/></g>
<g><path style="opacity:1" fill="#415884" d="M 452.5,140.5 C 452.56,139.957 452.893,139.624 453.5,139.5C 454.831,183.665 454.831,227.665 453.5,271.5C 453.832,227.663 453.499,183.997 452.5,140.5 Z"/></g>
<g><path style="opacity:1" fill="#4d648e" d="M 58.5,140.5 C 57.5013,183.997 57.168,227.663 57.5,271.5C 56.1692,227.665 56.1692,183.665 57.5,139.5C 58.1067,139.624 58.44,139.957 58.5,140.5 Z"/></g>
<g><path style="opacity:1" fill="#294571" d="M 149.5,199.5 C 190.75,197.195 216.916,215.862 228,255.5C 230.706,297.782 211.539,323.948 170.5,334C 133.543,336.365 108.709,320.198 96,285.5C 88.7176,241.044 106.551,212.377 149.5,199.5 Z"/></g>
<g><path style="opacity:1" fill="#284571" d="M 338.5,199.5 C 378.219,197.25 404.052,214.917 416,252.5C 421.019,291.649 405.186,318.149 368.5,332C 335.211,339.599 309.378,329.099 291,300.5C 274.454,265.19 281.288,235.356 311.5,211C 319.899,205.487 328.899,201.653 338.5,199.5 Z"/></g>
<g><path style="opacity:1" fill="#cfd6e0" d="M 134.5,290.5 C 123.069,289.181 111.735,289.181 100.5,290.5C 99.9569,290.44 99.6236,290.107 99.5,289.5C 105.333,289.167 111.167,288.833 117,288.5C 123.207,288.504 129.04,289.171 134.5,290.5 Z"/></g>
<g><path style="opacity:1" fill="#d5dae3" d="M 188.5,289.5 C 199.674,288.176 211.007,288.176 222.5,289.5C 222.376,290.107 222.043,290.44 221.5,290.5C 210.679,289.505 199.679,289.172 188.5,289.5 Z"/></g>
<g><path style="opacity:1" fill="#d5dbe4" d="M 322.5,289.5 C 311.321,289.172 300.321,289.505 289.5,290.5C 288.957,290.44 288.624,290.107 288.5,289.5C 299.993,288.176 311.326,288.176 322.5,289.5 Z"/></g>
<g><path style="opacity:1" fill="#d1d7e1" d="M 410.5,290.5 C 399.265,289.181 387.931,289.181 376.5,290.5C 381.96,289.171 387.793,288.504 394,288.5C 399.833,288.833 405.667,289.167 411.5,289.5C 411.376,290.107 411.043,290.44 410.5,290.5 Z"/></g>
<g><path style="opacity:1" fill="#fbfcfc" d="M 134.5,290.5 C 138.132,301.132 145.465,307.466 156.5,309.5C 159.024,310.8 161.691,310.8 164.5,309.5C 164.376,308.893 164.043,308.56 163.5,308.5C 162.489,299.343 166.489,295.51 175.5,297C 177.64,297.973 179.307,299.473 180.5,301.5C 184.182,298.125 186.848,294.125 188.5,289.5C 199.679,289.172 210.679,289.505 221.5,290.5C 209.858,317.426 189.192,331.426 159.5,332.5C 136.868,330.937 119.035,320.937 106,302.5C 103.881,298.598 102.048,294.598 100.5,290.5C 111.735,289.181 123.069,289.181 134.5,290.5 Z"/></g>
<g><path style="opacity:1" fill="#fbfbfc" d="M 322.5,289.5 C 327.388,303.782 337.388,310.282 352.5,309C 350.378,303.9 351.711,299.9 356.5,297C 359.167,296.333 361.833,296.333 364.5,297C 366.641,298.539 368.641,299.872 370.5,301C 373.411,298.01 375.411,294.51 376.5,290.5C 387.931,289.181 399.265,289.181 410.5,290.5C 398.907,317.22 378.407,331.22 349,332.5C 324.334,331.506 305.668,320.506 293,299.5C 291.336,296.673 290.17,293.673 289.5,290.5C 300.321,289.505 311.321,289.172 322.5,289.5 Z"/></g>
<g><path style="opacity:1" fill="#a0adc2" d="M 163.5,308.5 C 164.043,308.56 164.376,308.893 164.5,309.5C 161.691,310.8 159.024,310.8 156.5,309.5C 159.059,309.802 161.393,309.468 163.5,308.5 Z"/></g>
</svg>
